<svg
	version="1.1"
	id="Layer_1"
	xmlns="http://www.w3.org/2000/svg"
	xmlns:xlink="http://www.w3.org/1999/xlink"
	x="0px"
	y="0px"
	width="100%"
	viewBox="100 100 712 712"
	enable-background="new 0 0 912 912"
	xml:space="preserve"
>
	<style>
		path { fill: black; }
		@media (prefers-color-scheme: dark) {
			path { fill: white; }
		}
	</style>
	<path
		opacity="1.000000"
		stroke="none"
		d="
			M271.000000,655.067261 
			C259.189423,655.334778 247.875015,654.678406 236.564743,656.024841 
			C228.255859,657.013916 225.312881,652.418396 228.607651,644.781982 
			C239.804535,618.830444 250.521683,592.661804 262.236115,566.946960 
			C270.372681,549.085999 277.280823,530.721313 285.661530,512.956726 
			C294.096100,495.077942 301.218079,476.581970 309.004761,458.394775 
			C314.305573,446.013824 319.816528,433.722931 325.131348,421.347931 
			C331.100586,407.449280 336.927277,393.489532 342.867004,379.578156 
			C348.546265,366.276886 354.502197,353.089569 359.955750,339.697083 
			C367.413727,321.382263 376.555450,303.781464 383.027222,285.054382 
			C384.516113,280.746002 388.734528,278.189972 393.534332,278.192291 
			C417.009796,278.203644 440.485870,278.164154 463.960419,277.979065 
			C467.745453,277.949219 471.918091,275.575745 473.748993,281.355530 
			C474.352692,283.261292 474.367950,284.655518 473.549042,286.507812 
			C468.105774,298.819885 462.838379,311.209686 457.513092,323.573914 
			C449.621124,341.897491 441.712311,360.213806 433.840302,378.545959 
			C423.747467,402.049957 413.838867,425.634583 403.558258,449.056030 
			C395.539398,467.324707 388.078369,485.831757 379.554932,503.889954 
			C374.020996,515.614380 369.610992,527.864014 364.356628,539.727417 
			C360.472321,548.497498 357.393768,557.630127 352.594727,565.998474 
			C350.424957,569.782043 352.297333,572.674377 357.086609,572.754089 
			C364.415588,572.876099 371.750122,572.824097 379.079956,572.703552 
			C401.898529,572.328247 424.720093,572.738037 447.543213,572.463806 
			C459.677368,572.317993 471.850464,572.269470 483.965393,571.765320 
			C498.443604,571.162964 512.378296,567.768738 526.126648,562.678345 
			C544.559143,555.853516 560.558777,545.400452 575.365356,532.967651 
			C586.591125,523.541504 596.611084,512.797668 603.143616,499.438202 
			C605.576050,494.463745 609.154480,492.803497 614.272583,492.822327 
			C633.767395,492.894043 653.262451,492.886353 672.757446,492.865692 
			C676.405884,492.861816 680.068970,493.244476 683.688232,492.201111 
			C685.771362,491.600586 688.212891,491.153778 689.673523,493.269684 
			C691.290527,495.612122 692.296082,498.333374 691.154419,501.261780 
			C680.107422,529.598206 664.648315,555.135498 644.105469,577.719666 
			C625.893799,597.740906 605.347046,614.712708 581.580200,627.529968 
			C560.246704,639.034973 537.550903,646.737000 513.644287,651.524902 
			C488.148407,656.631104 462.540131,655.029541 436.955841,655.142944 
			C381.805084,655.387329 326.652069,655.124329 271.000000,655.067261 
			z
		"
	/>
	<path
		opacity="1.000000"
		stroke="none"
		d="
			M511.030701,494.221924 
			C499.789673,495.505859 488.966125,495.330597 478.139038,494.987885 
			C471.341370,494.772705 468.979675,491.216492 471.836151,484.824249 
			C474.007477,479.965302 476.073944,475.068237 478.189697,470.188568 
			C488.706848,445.932373 499.969574,421.983521 509.887573,397.488251 
			C518.502808,376.210632 527.710632,355.204987 536.733093,334.111145 
			C543.855042,317.460571 550.895569,300.774902 558.085266,284.153717 
			C559.783508,280.227631 562.815796,277.764130 567.360535,277.766815 
			C600.349915,277.786469 633.339355,277.773163 666.328491,277.877533 
			C672.406677,277.896759 674.822876,282.425385 672.394470,288.061310 
			C665.817322,303.325897 660.017578,318.959778 652.758484,333.887482 
			C643.944092,352.013733 637.997620,371.312744 628.963074,389.324005 
			C624.195007,398.829590 621.336792,409.205780 616.032471,418.513184 
			C602.256042,442.686279 584.236694,462.918213 560.191406,477.155945 
			C545.193176,486.036682 528.768311,491.514130 511.030701,494.221924 
			z
		"
	/>
</svg>